<svg xmlns="http://www.w3.org/2000/svg" width="164" height="138" viewBox="0 0 164 138" fill="none">
  <g clip-path="url(#clip0_201_104)">
    <path d="M163.07 61.77H146.88C143.87 24.8 117.47 0 81.19 0C44.91 0 18.49 24.8 15.49 61.77H0V76.95H15.57C18.9 113.45 44.99 137.88 81.19 137.88C117.39 137.88 143.46 113.46 146.81 76.95H163.08V61.77H163.07ZM81.19 15.6C107.69 15.6 125.35 33.44 127.88 61.77H34.29C36.84 33.44 54.69 15.6 81.19 15.6ZM81.19 122.28C54.95 122.28 37.2 104.8 34.37 76.95H127.8C125 104.8 107.42 122.28 81.19 122.28Z" fill="black"/>
  </g>
  <defs>
    <clipPath id="clip0_201_104">
      <rect width="163.07" height="137.88" fill="white"/>
    </clipPath>
  </defs>
</svg>